<svg xmlns="http://www.w3.org/2000/svg" xmlns:xlink="http://www.w3.org/1999/xlink" width="650" zoomAndPan="magnify" viewBox="0 0 487.5 225" height="300" preserveAspectRatio="xMidYMid meet" version="1.0"><defs><g/><clipPath id="2b6efa7aef"><path d="M 4.84375 106 L 478.359375 106 L 478.359375 171.195312 L 4.84375 171.195312 Z M 4.84375 106 " clip-rule="nonzero"/></clipPath><clipPath id="69a56b91d9"><path d="M 4.84375 53.566406 L 478.359375 53.566406 L 478.359375 166 L 4.84375 166 Z M 4.84375 53.566406 " clip-rule="nonzero"/></clipPath></defs><g clip-path="url(#2b6efa7aef)"><path fill="#0246bf" d="M 478.679688 106.425781 L 478.679688 115.5625 C 478.679688 146.332031 453.730469 171.273438 422.96875 171.273438 L 60.566406 171.273438 C 29.792969 171.273438 4.84375 146.332031 4.84375 115.5625 L 4.84375 106.425781 Z M 478.679688 106.425781 " fill-opacity="1" fill-rule="evenodd"/></g><g clip-path="url(#69a56b91d9)"><path fill="#005bff" d="M 60.566406 53.703125 L 422.96875 53.703125 C 453.738281 53.703125 478.6875 78.652344 478.6875 109.421875 C 478.6875 140.191406 453.738281 165.140625 422.96875 165.140625 L 60.566406 165.140625 C 29.792969 165.140625 4.84375 140.191406 4.84375 109.421875 C 4.84375 78.652344 29.792969 53.703125 60.566406 53.703125 Z M 60.566406 53.703125 " fill-opacity="1" fill-rule="nonzero"/></g><g fill="#ffffff" fill-opacity="1"><g transform="translate(27.764146, 130.448471)"><g><path d="M 55.640625 -37.390625 L 46.46875 0 L 33.6875 0 L 28.546875 -22.921875 L 23.28125 0 L 10.5 0 L 1.4375 -37.390625 L 12.671875 -37.390625 L 17.03125 -11.828125 L 22.921875 -37.390625 L 34.328125 -37.390625 L 40.046875 -12.046875 L 44.40625 -37.390625 Z M 55.640625 -37.390625 "/></g></g></g><g fill="#ffffff" fill-opacity="1"><g transform="translate(84.849822, 130.448471)"><g><path d="M 31.40625 -15.21875 C 31.40625 -14.40625 31.351562 -13.59375 31.25 -12.78125 L 11.5625 -12.78125 C 11.664062 -11.15625 12.113281 -9.941406 12.90625 -9.140625 C 13.707031 -8.347656 14.726562 -7.953125 15.96875 -7.953125 C 17.695312 -7.953125 18.9375 -8.734375 19.6875 -10.296875 L 30.765625 -10.296875 C 30.304688 -8.242188 29.410156 -6.410156 28.078125 -4.796875 C 26.753906 -3.191406 25.082031 -1.925781 23.0625 -1 C 21.050781 -0.0820312 18.828125 0.375 16.390625 0.375 C 13.453125 0.375 10.84375 -0.242188 8.5625 -1.484375 C 6.28125 -2.722656 4.492188 -4.488281 3.203125 -6.78125 C 1.910156 -9.082031 1.265625 -11.789062 1.265625 -14.90625 C 1.265625 -18.019531 1.898438 -20.71875 3.171875 -23 C 4.453125 -25.28125 6.234375 -27.035156 8.515625 -28.265625 C 10.796875 -29.503906 13.421875 -30.125 16.390625 -30.125 C 19.328125 -30.125 21.925781 -29.523438 24.1875 -28.328125 C 26.445312 -27.128906 28.210938 -25.40625 29.484375 -23.15625 C 30.765625 -20.90625 31.40625 -18.257812 31.40625 -15.21875 Z M 20.796875 -17.828125 C 20.796875 -19.097656 20.367188 -20.09375 19.515625 -20.8125 C 18.671875 -21.539062 17.613281 -21.90625 16.34375 -21.90625 C 15.0625 -21.90625 14.015625 -21.5625 13.203125 -20.875 C 12.390625 -20.1875 11.863281 -19.171875 11.625 -17.828125 Z M 20.796875 -17.828125 "/></g></g></g><g fill="#ffffff" fill-opacity="1"><g transform="translate(117.530847, 130.448471)"><g><path d="M 13.375 -25.625 C 14.1875 -27.039062 15.332031 -28.144531 16.8125 -28.9375 C 18.300781 -29.726562 20.050781 -30.125 22.0625 -30.125 C 24.4375 -30.125 26.585938 -29.503906 28.515625 -28.265625 C 30.441406 -27.035156 31.960938 -25.269531 33.078125 -22.96875 C 34.191406 -20.664062 34.75 -17.976562 34.75 -14.90625 C 34.75 -11.832031 34.191406 -9.132812 33.078125 -6.8125 C 31.960938 -4.5 30.441406 -2.722656 28.515625 -1.484375 C 26.585938 -0.242188 24.4375 0.375 22.0625 0.375 C 20.050781 0.375 18.300781 -0.0195312 16.8125 -0.8125 C 15.332031 -1.613281 14.1875 -2.722656 13.375 -4.140625 L 13.375 0 L 2.96875 0 L 2.96875 -39.25 L 13.375 -39.25 Z M 24.1875 -14.90625 C 24.1875 -16.851562 23.664062 -18.363281 22.625 -19.4375 C 21.582031 -20.519531 20.300781 -21.0625 18.78125 -21.0625 C 17.257812 -21.0625 15.976562 -20.507812 14.9375 -19.40625 C 13.894531 -18.3125 13.375 -16.8125 13.375 -14.90625 C 13.375 -12.957031 13.894531 -11.4375 14.9375 -10.34375 C 15.976562 -9.25 17.257812 -8.703125 18.78125 -8.703125 C 20.300781 -8.703125 21.582031 -9.257812 22.625 -10.375 C 23.664062 -11.488281 24.1875 -13 24.1875 -14.90625 Z M 24.1875 -14.90625 "/></g></g></g><g fill="#ffffff" fill-opacity="1"><g transform="translate(153.607303, 130.448471)"><g><path d="M 15.65625 0.375 C 12.96875 0.375 10.570312 -0.0703125 8.46875 -0.96875 C 6.363281 -1.875 4.695312 -3.113281 3.46875 -4.6875 C 2.25 -6.269531 1.570312 -8.050781 1.4375 -10.03125 L 11.515625 -10.03125 C 11.648438 -9.070312 12.085938 -8.328125 12.828125 -7.796875 C 13.578125 -7.265625 14.5 -7 15.59375 -7 C 16.445312 -7 17.117188 -7.175781 17.609375 -7.53125 C 18.109375 -7.882812 18.359375 -8.34375 18.359375 -8.90625 C 18.359375 -9.65625 17.953125 -10.207031 17.140625 -10.5625 C 16.328125 -10.914062 14.984375 -11.300781 13.109375 -11.71875 C 10.984375 -12.144531 9.210938 -12.625 7.796875 -13.15625 C 6.378906 -13.6875 5.148438 -14.550781 4.109375 -15.75 C 3.066406 -16.957031 2.546875 -18.585938 2.546875 -20.640625 C 2.546875 -22.398438 3.019531 -23.992188 3.96875 -25.421875 C 4.925781 -26.859375 6.332031 -28 8.1875 -28.84375 C 10.050781 -29.695312 12.289062 -30.125 14.90625 -30.125 C 18.789062 -30.125 21.847656 -29.171875 24.078125 -27.265625 C 26.304688 -25.359375 27.597656 -22.847656 27.953125 -19.734375 L 18.5625 -19.734375 C 18.382812 -20.691406 17.96875 -21.425781 17.3125 -21.9375 C 16.664062 -22.445312 15.789062 -22.703125 14.6875 -22.703125 C 13.84375 -22.703125 13.195312 -22.539062 12.75 -22.21875 C 12.3125 -21.90625 12.09375 -21.46875 12.09375 -20.90625 C 12.09375 -20.195312 12.5 -19.65625 13.3125 -19.28125 C 14.125 -18.90625 15.429688 -18.523438 17.234375 -18.140625 C 19.390625 -17.679688 21.179688 -17.164062 22.609375 -16.59375 C 24.046875 -16.03125 25.304688 -15.117188 26.390625 -13.859375 C 27.472656 -12.609375 28.015625 -10.90625 28.015625 -8.75 C 28.015625 -7.019531 27.507812 -5.460938 26.5 -4.078125 C 25.488281 -2.703125 24.054688 -1.613281 22.203125 -0.8125 C 20.347656 -0.0195312 18.164062 0.375 15.65625 0.375 Z M 15.65625 0.375 "/></g></g></g><g fill="#ffffff" fill-opacity="1"><g transform="translate(183.741755, 130.448471)"><g><path d="M 8.21875 -32.515625 C 6.382812 -32.515625 4.910156 -33.019531 3.796875 -34.03125 C 2.679688 -35.039062 2.125 -36.304688 2.125 -37.828125 C 2.125 -39.378906 2.679688 -40.664062 3.796875 -41.6875 C 4.910156 -42.71875 6.382812 -43.234375 8.21875 -43.234375 C 10.019531 -43.234375 11.476562 -42.71875 12.59375 -41.6875 C 13.707031 -40.664062 14.265625 -39.378906 14.265625 -37.828125 C 14.265625 -36.304688 13.707031 -35.039062 12.59375 -34.03125 C 11.476562 -33.019531 10.019531 -32.515625 8.21875 -32.515625 Z M 13.375 -29.765625 L 13.375 0 L 2.96875 0 L 2.96875 -29.765625 Z M 13.375 -29.765625 "/></g></g></g><g fill="#ffffff" fill-opacity="1"><g transform="translate(200.082268, 130.448471)"><g><path d="M 20.53125 -8.859375 L 20.53125 0 L 16.015625 0 C 8.410156 0 4.609375 -3.765625 4.609375 -11.296875 L 4.609375 -21.109375 L 0.953125 -21.109375 L 0.953125 -29.765625 L 4.609375 -29.765625 L 4.609375 -36.96875 L 15.0625 -36.96875 L 15.0625 -29.765625 L 20.46875 -29.765625 L 20.46875 -21.109375 L 15.0625 -21.109375 L 15.0625 -11.140625 C 15.0625 -10.328125 15.242188 -9.742188 15.609375 -9.390625 C 15.984375 -9.035156 16.613281 -8.859375 17.5 -8.859375 Z M 20.53125 -8.859375 "/></g></g></g><g fill="#ffffff" fill-opacity="1"><g transform="translate(222.417833, 130.448471)"><g><path d="M 31.40625 -15.21875 C 31.40625 -14.40625 31.351562 -13.59375 31.25 -12.78125 L 11.5625 -12.78125 C 11.664062 -11.15625 12.113281 -9.941406 12.90625 -9.140625 C 13.707031 -8.347656 14.726562 -7.953125 15.96875 -7.953125 C 17.695312 -7.953125 18.9375 -8.734375 19.6875 -10.296875 L 30.765625 -10.296875 C 30.304688 -8.242188 29.410156 -6.410156 28.078125 -4.796875 C 26.753906 -3.191406 25.082031 -1.925781 23.0625 -1 C 21.050781 -0.0820312 18.828125 0.375 16.390625 0.375 C 13.453125 0.375 10.84375 -0.242188 8.5625 -1.484375 C 6.28125 -2.722656 4.492188 -4.488281 3.203125 -6.78125 C 1.910156 -9.082031 1.265625 -11.789062 1.265625 -14.90625 C 1.265625 -18.019531 1.898438 -20.71875 3.171875 -23 C 4.453125 -25.28125 6.234375 -27.035156 8.515625 -28.265625 C 10.796875 -29.503906 13.421875 -30.125 16.390625 -30.125 C 19.328125 -30.125 21.925781 -29.523438 24.1875 -28.328125 C 26.445312 -27.128906 28.210938 -25.40625 29.484375 -23.15625 C 30.765625 -20.90625 31.40625 -18.257812 31.40625 -15.21875 Z M 20.796875 -17.828125 C 20.796875 -19.097656 20.367188 -20.09375 19.515625 -20.8125 C 18.671875 -21.539062 17.613281 -21.90625 16.34375 -21.90625 C 15.0625 -21.90625 14.015625 -21.5625 13.203125 -20.875 C 12.390625 -20.1875 11.863281 -19.171875 11.625 -17.828125 Z M 20.796875 -17.828125 "/></g></g></g><g fill="#ffffff" fill-opacity="1"><g transform="translate(255.098859, 130.448471)"><g/></g></g><g fill="#ffffff" fill-opacity="1"><g transform="translate(265.232099, 130.448471)"><g><path d="M 13.375 -29.0625 L 13.375 -22.96875 L 25.296875 -22.96875 L 25.296875 -15.0625 L 13.375 -15.0625 L 13.375 -8.328125 L 26.890625 -8.328125 L 26.890625 0 L 2.96875 0 L 2.96875 -37.390625 L 26.890625 -37.390625 L 26.890625 -29.0625 Z M 13.375 -29.0625 "/></g></g></g><g fill="#ffffff" fill-opacity="1"><g transform="translate(294.305476, 130.448471)"><g><path d="M 41.859375 -30.03125 C 45.609375 -30.03125 48.550781 -28.894531 50.6875 -26.625 C 52.820312 -24.363281 53.890625 -21.269531 53.890625 -17.34375 L 53.890625 0 L 43.5 0 L 43.5 -15.96875 C 43.5 -17.5625 43.054688 -18.796875 42.171875 -19.671875 C 41.285156 -20.554688 40.082031 -21 38.5625 -21 C 37.039062 -21 35.835938 -20.554688 34.953125 -19.671875 C 34.066406 -18.796875 33.625 -17.5625 33.625 -15.96875 L 33.625 0 L 23.234375 0 L 23.234375 -15.96875 C 23.234375 -17.5625 22.800781 -18.796875 21.9375 -19.671875 C 21.070312 -20.554688 19.878906 -21 18.359375 -21 C 16.796875 -21 15.570312 -20.554688 14.6875 -19.671875 C 13.8125 -18.796875 13.375 -17.5625 13.375 -15.96875 L 13.375 0 L 2.96875 0 L 2.96875 -29.765625 L 13.375 -29.765625 L 13.375 -25.828125 C 14.289062 -27.109375 15.484375 -28.128906 16.953125 -28.890625 C 18.421875 -29.648438 20.109375 -30.03125 22.015625 -30.03125 C 24.203125 -30.03125 26.15625 -29.550781 27.875 -28.59375 C 29.59375 -27.632812 30.945312 -26.289062 31.9375 -24.5625 C 33 -26.1875 34.394531 -27.503906 36.125 -28.515625 C 37.851562 -29.523438 39.765625 -30.03125 41.859375 -30.03125 Z M 41.859375 -30.03125 "/></g></g></g><g fill="#ffffff" fill-opacity="1"><g transform="translate(350.913665, 130.448471)"><g><path d="M 13.375 -25.625 C 14.1875 -27.039062 15.332031 -28.144531 16.8125 -28.9375 C 18.300781 -29.726562 20.050781 -30.125 22.0625 -30.125 C 24.4375 -30.125 26.585938 -29.503906 28.515625 -28.265625 C 30.441406 -27.035156 31.960938 -25.269531 33.078125 -22.96875 C 34.191406 -20.664062 34.75 -17.976562 34.75 -14.90625 C 34.75 -11.832031 34.191406 -9.132812 33.078125 -6.8125 C 31.960938 -4.5 30.441406 -2.722656 28.515625 -1.484375 C 26.585938 -0.242188 24.4375 0.375 22.0625 0.375 C 20.050781 0.375 18.300781 -0.0195312 16.8125 -0.8125 C 15.332031 -1.613281 14.1875 -2.722656 13.375 -4.140625 L 13.375 0 L 2.96875 0 L 2.96875 -39.25 L 13.375 -39.25 Z M 24.1875 -14.90625 C 24.1875 -16.851562 23.664062 -18.363281 22.625 -19.4375 C 21.582031 -20.519531 20.300781 -21.0625 18.78125 -21.0625 C 17.257812 -21.0625 15.976562 -20.507812 14.9375 -19.40625 C 13.894531 -18.3125 13.375 -16.8125 13.375 -14.90625 C 13.375 -12.957031 13.894531 -11.4375 14.9375 -10.34375 C 15.976562 -9.25 17.257812 -8.703125 18.78125 -8.703125 C 20.300781 -8.703125 21.582031 -9.257812 22.625 -10.375 C 23.664062 -11.488281 24.1875 -13 24.1875 -14.90625 Z M 24.1875 -14.90625 "/></g></g></g><g fill="#ffffff" fill-opacity="1"><g transform="translate(386.99012, 130.448471)"><g><path d="M 31.40625 -15.21875 C 31.40625 -14.40625 31.351562 -13.59375 31.25 -12.78125 L 11.5625 -12.78125 C 11.664062 -11.15625 12.113281 -9.941406 12.90625 -9.140625 C 13.707031 -8.347656 14.726562 -7.953125 15.96875 -7.953125 C 17.695312 -7.953125 18.9375 -8.734375 19.6875 -10.296875 L 30.765625 -10.296875 C 30.304688 -8.242188 29.410156 -6.410156 28.078125 -4.796875 C 26.753906 -3.191406 25.082031 -1.925781 23.0625 -1 C 21.050781 -0.0820312 18.828125 0.375 16.390625 0.375 C 13.453125 0.375 10.84375 -0.242188 8.5625 -1.484375 C 6.28125 -2.722656 4.492188 -4.488281 3.203125 -6.78125 C 1.910156 -9.082031 1.265625 -11.789062 1.265625 -14.90625 C 1.265625 -18.019531 1.898438 -20.71875 3.171875 -23 C 4.453125 -25.28125 6.234375 -27.035156 8.515625 -28.265625 C 10.796875 -29.503906 13.421875 -30.125 16.390625 -30.125 C 19.328125 -30.125 21.925781 -29.523438 24.1875 -28.328125 C 26.445312 -27.128906 28.210938 -25.40625 29.484375 -23.15625 C 30.765625 -20.90625 31.40625 -18.257812 31.40625 -15.21875 Z M 20.796875 -17.828125 C 20.796875 -19.097656 20.367188 -20.09375 19.515625 -20.8125 C 18.671875 -21.539062 17.613281 -21.90625 16.34375 -21.90625 C 15.0625 -21.90625 14.015625 -21.5625 13.203125 -20.875 C 12.390625 -20.1875 11.863281 -19.171875 11.625 -17.828125 Z M 20.796875 -17.828125 "/></g></g></g><g fill="#ffffff" fill-opacity="1"><g transform="translate(419.671146, 130.448471)"><g><path d="M 1.265625 -14.90625 C 1.265625 -17.976562 1.820312 -20.664062 2.9375 -22.96875 C 4.050781 -25.269531 5.582031 -27.035156 7.53125 -28.265625 C 9.476562 -29.503906 11.632812 -30.125 14 -30.125 C 15.914062 -30.125 17.625 -29.726562 19.125 -28.9375 C 20.625 -28.144531 21.800781 -27.054688 22.65625 -25.671875 L 22.65625 -39.25 L 33.09375 -39.25 L 33.09375 0 L 22.65625 0 L 22.65625 -4.140625 C 21.84375 -2.753906 20.691406 -1.65625 19.203125 -0.84375 C 17.710938 -0.03125 15.960938 0.375 13.953125 0.375 C 11.578125 0.375 9.425781 -0.242188 7.5 -1.484375 C 5.570312 -2.722656 4.050781 -4.5 2.9375 -6.8125 C 1.820312 -9.132812 1.265625 -11.832031 1.265625 -14.90625 Z M 22.703125 -14.90625 C 22.703125 -16.8125 22.179688 -18.3125 21.140625 -19.40625 C 20.097656 -20.507812 18.816406 -21.0625 17.296875 -21.0625 C 15.734375 -21.0625 14.4375 -20.519531 13.40625 -19.4375 C 12.382812 -18.363281 11.875 -16.851562 11.875 -14.90625 C 11.875 -13 12.382812 -11.488281 13.40625 -10.375 C 14.4375 -9.257812 15.734375 -8.703125 17.296875 -8.703125 C 18.816406 -8.703125 20.097656 -9.25 21.140625 -10.34375 C 22.179688 -11.4375 22.703125 -12.957031 22.703125 -14.90625 Z M 22.703125 -14.90625 "/></g></g></g></svg>